<mxfile host="Electron" modified="2024-09-12T18:24:16.646Z" agent="Mozilla/5.0 (Windows NT 10.0; Win64; x64) AppleWebKit/537.36 (KHTML, like Gecko) draw.io/21.5.0 Chrome/112.0.5615.204 Electron/24.5.1 Safari/537.36" etag="wsSstCK1xUR4BHY4TKkf" version="21.5.0" type="device">
  <diagram name="Page-1" id="v7QhcTiIPRtgXWgHMGNh">
    <mxGraphModel dx="1340" dy="868" grid="0" gridSize="10" guides="1" tooltips="1" connect="1" arrows="1" fold="1" page="1" pageScale="1" pageWidth="1200" pageHeight="1920" math="0" shadow="0">
      <root>
        <mxCell id="0" />
        <mxCell id="1" parent="0" />
        <mxCell id="Evcdyq5CS0_EJ3450Kfh-24" value="ClassifiedFolders" style="sketch=0;outlineConnect=0;fontColor=#232F3E;gradientColor=none;fillColor=#232F3D;strokeColor=none;dashed=0;verticalLabelPosition=bottom;verticalAlign=top;align=center;html=1;fontSize=12;fontStyle=0;aspect=fixed;pointerEvents=1;shape=mxgraph.aws4.folder;" parent="1" vertex="1">
          <mxGeometry x="699.49" y="589" width="56.02" height="51" as="geometry" />
        </mxCell>
        <mxCell id="fd9z45pw2IzC_cbfkwPy-5" style="edgeStyle=orthogonalEdgeStyle;rounded=0;orthogonalLoop=1;jettySize=auto;html=1;entryX=0;entryY=0.5;entryDx=0;entryDy=0;" edge="1" parent="1" source="Evcdyq5CS0_EJ3450Kfh-63" target="lKeX1QoUz5AZitKnyAqx-5">
          <mxGeometry relative="1" as="geometry" />
        </mxCell>
        <mxCell id="Evcdyq5CS0_EJ3450Kfh-63" value="VersaScript-GPT4o" style="shape=image;verticalLabelPosition=bottom;labelBackgroundColor=default;verticalAlign=top;aspect=fixed;imageAspect=0;image=https://i.pinimg.com/736x/57/6d/93/576d9360eaff98f1dcbe98ff6926ffe6.jpg;" parent="1" vertex="1">
          <mxGeometry x="310" y="420" width="106.27" height="120" as="geometry" />
        </mxCell>
        <mxCell id="fd9z45pw2IzC_cbfkwPy-1" style="edgeStyle=orthogonalEdgeStyle;rounded=0;orthogonalLoop=1;jettySize=auto;html=1;" edge="1" parent="1" source="Evcdyq5CS0_EJ3450Kfh-65" target="Evcdyq5CS0_EJ3450Kfh-68">
          <mxGeometry relative="1" as="geometry" />
        </mxCell>
        <mxCell id="Evcdyq5CS0_EJ3450Kfh-65" value="RightFax Network Folder" style="sketch=0;outlineConnect=0;fontColor=#232F3E;gradientColor=none;fillColor=#232F3D;strokeColor=none;dashed=0;verticalLabelPosition=bottom;verticalAlign=top;align=center;html=1;fontSize=12;fontStyle=0;aspect=fixed;pointerEvents=1;shape=mxgraph.aws4.folder;" parent="1" vertex="1">
          <mxGeometry x="578.11" y="129" width="56.02" height="51" as="geometry" />
        </mxCell>
        <mxCell id="Evcdyq5CS0_EJ3450Kfh-75" style="edgeStyle=orthogonalEdgeStyle;rounded=0;orthogonalLoop=1;jettySize=auto;html=1;entryX=0.5;entryY=0;entryDx=0;entryDy=0;" parent="1" source="Evcdyq5CS0_EJ3450Kfh-68" target="Evcdyq5CS0_EJ3450Kfh-63" edge="1">
          <mxGeometry relative="1" as="geometry" />
        </mxCell>
        <mxCell id="Evcdyq5CS0_EJ3450Kfh-68" value="UpsideDownClassifier V2" style="shape=mxgraph.signs.sports.binoculars;html=1;pointerEvents=1;fillColor=#000000;strokeColor=none;verticalLabelPosition=bottom;verticalAlign=top;align=center;" parent="1" vertex="1">
          <mxGeometry x="450" y="230" width="50" height="60" as="geometry" />
        </mxCell>
        <mxCell id="Evcdyq5CS0_EJ3450Kfh-78" value="Project Cable Car V2" style="text;html=1;strokeColor=none;fillColor=none;align=center;verticalAlign=middle;whiteSpace=wrap;rounded=0;fontSize=35;" parent="1" vertex="1">
          <mxGeometry x="430" y="50" width="350" height="30" as="geometry" />
        </mxCell>
        <mxCell id="fd9z45pw2IzC_cbfkwPy-6" style="edgeStyle=orthogonalEdgeStyle;rounded=0;orthogonalLoop=1;jettySize=auto;html=1;" edge="1" parent="1" source="lKeX1QoUz5AZitKnyAqx-5" target="Evcdyq5CS0_EJ3450Kfh-24">
          <mxGeometry relative="1" as="geometry" />
        </mxCell>
        <mxCell id="lKeX1QoUz5AZitKnyAqx-5" value="" style="shape=image;verticalLabelPosition=bottom;labelBackgroundColor=default;verticalAlign=top;aspect=fixed;imageAspect=0;image=data:image/png,iVBORw0KGgoAAAANSUhEUgAAAZ8AAABKCAYAAABkZlm8AAARnUlEQVR4nO2dYWgbZ5rH/3sJvdCArLauTlk22I7Vhd06cUQMezbetD1FEFPDkRpX9LyGflg5RMQfEjgiXBsM9gaFhfZDikut+1DwOkUNjlnw4cBYu20J9n1wUJx4uweVKwWHi09xt5IgJT0a9j7MjDQjz2gkeTSy4/8PArFGM/Poed93nvd93nfe/08aGhr+DkIIIcRC/qHWBhBCCNl7MPgQQgixHAYfQgghlsPgQwghxHIYfAghhFgOgw8hhBDLYfAhhBBiOQw+hBBCLIfBhxBCiOUw+BBCCLEcBh9CCCGWw+BDCCHEchh8CCGEWA6DDyGEEMth8CGEEGI5DD6EEEIsh8GHEEKI5TD4EEIIsRwGH0IIIZbD4EMIIcRyGHwIIYRYjunB58rEfSRv3kdy4gezLy3incZgVIBb/tvzGHdv3kfy5iNc81R+2Ursdo6vYCSaEP9Nhiq/eaV4pzFY9N5+dN1I6NronkxgJLqCLm/1TVUTQn80gZEb03CaeFX/6COxDCOP4Tfxumqe4lpErCt3R5/mPhV9Kf4bHK/e3XcVlrRNqS5p+r469WzXYlJ5mIW5wedsBr4jdkRON6Ax8I+mXlqX6EEcO92Axtnn0DFQ4UOnQrs3hlsx5mlCeClbyV2rjnP8PNqwiLCnCWOeJowNBK25cUCoSYMPj76MxtMNiHy7iUFFYDAT/+jf0IF6/O50A46N7st9HhsQfTy3VpXbwj25C4OaBW3TPelD41pErN+eJlwdDm/b7FLYs+VhIvvNvJj/0P8B39hwycyLlsrHBxA/8wSuCk6tqd3bQejDVUH/8CGHDemvPseGzvHYQBNiVTHMiCCmPNULhJdW7PC1/ghgn+F3y8Xl+B7Zv74Iax5xzwhVa5t+OOuB5IJeXapuPdu1bKM8zMTU4KNJQMDI8RSW6zvQVpfF8swqXD0dsGcWEX6rT3owhtAf9aFROiW9dFndgwkIGOlRuipedbPzqG2Dyu4yz12LqEYfzvEV+Nttub+TM02YmpD/8qPrxhDa6uS/45jzeHPBwj2ZQHez+P8t/pLOd9YDSGmY5Z3GYLADdo3rlmRbQXnkjqmu64I/mthiu+q6Bf7Yapv6O87xFfTiQ9xyDOV+u9pnOxg9n0no+Vv1efMQRqJD4v+1fKeBsc8K6pmifovnriLd3oFGxDE3A3T3uNT3Vv2uLJZDrZgv0iEyl2bU12kfKV7PxN9cv9CE1eNyO1LbXq3yEJ+HtxFOdeWuU9h+1ffO27Xzy6M8qh98AKC5A/UzTZg7nkB3jwNznghaol1we4F5wY+uGz7Yly5jbDgM8YE9hP5AOP9A63FgOdQkOtE7jcGgwxKz5eCRt6083JMnsOppwpTiWv2BYO539banMOdp1Rx9OMfPo20zgrG3tCu0PGpxTybQqWFzLuC1yw1EURHlEZOOL8XKr2dbCP3Hb2PMI00UBQSM9AhwT3gRk68bEDByKqUZpDeGWzEm32PLrUPoD3YgPdOEqxP53zI4vpZrnPb2IXQuXcbYQFi8xqlpOCdK7QzUiiI+A4rWBdlf7skEOlNanQxjivnMOf428FETxgRAfij3jvsV/m5BPHQZm+eG0H1qEeFQCr3BE3ADiBW2zYCAkaCADWFrZ8ZUCjsoPQmM9ADKTk7xeibS2JMQ2/ZAWOzM9YYwLwSrXh5o9sGPCMY8QakuvA03wrm64MWHGPOI13WOr8B/bhoxoQ/ADi2PCjF1zsfl+B7ZlEY8yyxCkHpa6aXP1I7wvg4XFnE9V4hBCEtZNB4XJ8fdvR3A0oclRO/9SGXSOHHWPLud411ozChtK4/YgLLQg1hdA+w/VWZaXWgJFLlA84n8woqSCWLK04Qxz2UsZ8RelZgPL7UHFIK33YbkjF6FDWJK2cObuI0kHHCasGhB9reQ65UHMTUTh/2Xr+fnj9YiuQa/8cUq0nUOHCq8UHw/skee4Mr2TSrgKQ6/BKQelpvOK8VnBnVhOxTx2cawV1Evwoh9lYXd0aw4dz53PLmgDvLO11rUbXPiMyxntH6HyW1T6MNVTxPGPBEkIY5KxDpe5kNW4ZfYnThQf1gxT1nF8sgsIizXh8K6IPRhSvG82VLHa1weZmLKyMc/+gjv/fP3iM824NjHZZ78igP2OmWKRqLsidt9+Dffz8SVSGfsiJyuM5zDMbL7kMMGbK5X3qveki4E0nIaTOjD1VcEjMi9toJ03sZwK+YmE+iOJtANvdRaFfAehh1ZxL/W/4oy5SeSxaZZ99+Ov2WiB3EM4soe3zfOkheRvNvzDv61If/349h/4jd/FheTXJm4D9+R57H4+wacipZvUlGfGdSFqlI4igBKbnuHHDbYlaknieSWb5rfNs0geUfZIfBiTO701LI8tqTbgVKnGapZHtXAlOATHn0ZYYgN9O7oz1SrgErClML9AQs3s0j9vgGNJT4cjOx+mMoClWb4vNMY7HGp8utbUmSKCu+eTMB/Y1rlh/yCADEVOTiO6gcgYR3pYIvuYef4CrqblfNEIfRHu8y7v9T7lH3g/KkD2hNXRTibQfJf9uN3pxvKWhjwycyn+ETn2KVAAy5Jy6wXXA04VcYDsSSfGdSF6iCmOaFIKxdLU2lRWqfI/LZZdWpSHoB7ckhaoSrdq8xphmqVRzUwNe0WTz0Pm+PH8k6auI1kXQd6dZYtPkxlFWkXsbHYNb8JAM9hvQJn6tm98cUq0s0+9Fc8/M5iUx5BBISCnq+ah6liy7XXsJmp1IZyCWJ1zYa2c0WWSmdSeCj91z2pmF+S+TqFdF0L3GWm4sQUQwe8OX9LKcCFChr9t/ursCJtH9a/BRyHKljGbeQzBVp1Qd0OzCX9P5KnvNPoVUyyGxG7E4e9/XyJ74nptM2jnZi9+A5mew5rnlXRM8VkrC6P/Ojfj65zxZ53akwpDwuxZsFBUYKY8gD9UfVwUR4xbAx/iOUbQ1JaLovlUAQInrDGNKEPVzGNwaA8oQnFKK1weOzDSNSXX3ki9OFWbwLdwQTaguJ5y2uu3PLGwtU04mRpX77SFQ691yKKRQ8FiwqkoXapqbnCe4upvXzPPDbQBEwmVKnQfHnMIxn15Y6llxaRbC4YKQl9uP7aCvzyb89d29hnhf5OL12WFh/sZIqXh5HPitcFEXU7QOmrq4oShLDUBb9iwn55KYu2UjvaE16MQcBIrpxl28uYe7l3H994D+PICzacBPBleT9AB4N6ZkDtygOIXV9EZ1CyF0ByaRHp9hILxIzysJCfNDQ0/N2si/lHH+E9h826F0xV/ICFm09wu4L8ZW3tJqZzNoNk64GqlOeVifvoStUgDbSrKdY2bRj+7Zs48d0tnJlZ33KUbbMaVP6sNBNT027hh88BL/1Ymzdnzz6BK7O/ojeAamo3MZ0rrWntVZcmsBPSQLsOnbZ58o03MXtRP/AAbJtVYRvPSjMxdeQDyKuCAJSxymhbeB7j7r9vwgYgPlveRLASy+0mpiOvkAKquYLnKa5FHqCjDsj+V41HQFor1RRYtkJSj73WNvdIeZiF6cGHEEIIMYKSCoQQQiyHwYcQQojlMPgQQgixHAYfQgghlsPgQwghxHJqIqNdlgqgkSrmDpbq3a3SyuZIoWvLTT+rVM9nohR6teqPNdLjEkc7MfvbV3Gy4GPxfZ93pH+deLfwnItvYpg62M8c5r6Jl5O8tfDN2ehBHIseFN9qH3gMf/Rg+Xt6Gdidk+otc/sMfc2dnU1+E80HWDhb2fsAebnpCsqjErR2EC/3vQppE8dbFWxHsit9BvUGnoOjBxC2+r0l56sYcAO3r32K8Z0tykRMxtSRjyh5e6B2Mtp1P25DqlfPbkmq904xqd4mjFm25bpV7MOf//p8ZZtoQpabPmCx3HQccx5J2yW0CLQPWTzi3I0+E7m0Yq/Nzg0vv4CD2SS+LNp4MnjwbDUuAss2Ft26UWZauUt+EelkmUOKzf6sfVO4UqleY9QbGCo3APSj68Z54KN51AflDSsLNwjUk+iWzv0qhbZ2UWJ3Dj50N6vlk/XvXW0K6oKGBHDeTum7EDdzRTky2jlNFoVKpK7P1J/LGkrFpZVrtWGjbGuhRIOWDL34OVQ+0vqsQo52Yvbn9/HB347hglv0i1IDCRBTavIxAED2O9UlTtbXAVB/puLeLZy5t007yY7EkgUH7skhURJa6pXOqcSq8tLJY7I6YbNP3WOt60C3Y17Roy112/Bt4J3GYDSBEalRN/bI8zdCTl10Y7gVY54mhJeKySHoEBAkqeom6RoOdKvmjWxoC3ZhMySrkrrQqfCJLNGt9Fle+sGGtl+mEA4tIt3sQ2fqMsIKdVjje1cPdV24jOV6RVlPeEU7e0QfO8fP5wKP3PG1tw+hMyWps87Ec9/V5OsU0gqVSH2fSaPX0CLSytGTUv21hj7Lo5B1V3VU5M/E35VuH8r9rtU15MsdAAIn0Ig4Vs3aKbyhExdevIsz73+KM9fuAu5f5+dnjnbigjuDP77/qXhcyO/f9m6POMdzwW0DbMdwQZrz+cMbpUs6kN1N9WW0vdPobI5jTmdUUJJ0slJ2Vvgc8YwNrtcK0yk7VKpXB/dxl0qqemN4HskCDZzkjPzw2ypvbCTRndfAieNWwSixlHsD4qaOtl88qWAiWk9uOoQWVV0IY35BXdYbw62YW3Ohc3wa3nZg+aOCdKZC+thQwltYR1rxp7GsuT6185nM67nAoxr1G8jQx64vIq2QY3cfd22Vsgcqlx7P3sUH8qagG+v476wNL7wMADYM/+owvhFuaQr0fTIjBqQPYlnxGlKAUo6ayLNN7WW0gTKlk8PY2BzSmNvZmVK9OneGs14aTfUoPy9DjrqYRLdZ9/64Do3IIHnzPgZL3ESzqNy09zDscCnSWhIZteGxgQhapAftlAADbKh/ReeQ9zDsQP537UafSdjbO2BHFstfFKSbjWTohc8RPzeElgAQmxCD/60BjZR1hdLjWvxTPUcvxJidIaNdlnSy+CBI3ylsQLtPqld3vsKIUiS6Tbh3TkvldEPJ1zWWmzaaKxHTSJiJIN0zhP5A2MBOSS1WIwA5X2uBHSlsCNjlPhPnca7jPPxBARtCgf+KytCHEfvqPPzHQ2LKbe02prS+VqH0uBb/u5kFwABEilN9GW1hHWm40CLNR4h69vnDZUsnB95GW51eztpcGe3qIabRis5XGFK6RPd27l2ZLo6O3LTwOeIZF7onQ9qnIT/PI0yI6ddidronfWjMrCKmNToKCPC321SpMkOfFdTVPDX0mQI5JamaazKQoRfPm0eyuQuDpxxYvl5kUYye9LiB1LXMyTd+jRO2ddy7BwBZPPgOOPJz6Rznq/iDt/j5ZG9hwWq3IKZmTmBETlmsRRBe6kKvfLgU6eS6DkVaYafIwhpJ9RpJK7ciPL4CvzIFVbQHq8BAotuIbd17W4Qx/xaAG0M5mWAgvzpLXE0GLIckOyY+w/KpIXRHBcDjxUMAaM5LDG+12VWwUq0pv2CgJJ8V1FXFarfa+UxNbOAynDeG4I+uSLYVl6GXf9fqmg/d9YvagXo72I7hwsVjuAAAWMcf38/P8XwycwtHL3Zi9qJ07NpdnOrWuxDZa1BGG7W2e+fiH32EQbxYUTqyGnLTzvEV+B3zZS9pt5Kd5jMZ92QCnakiryhUIj1+tBOzv/oOH/zHX/ClOWaSPQRltEGpXm2e4o1ffF9k9VVx9qbc9A71WUBAd/PWVY9Kqik9TogW5r7n83EdIt9u4r1t73FVBvLebmfSiP+pwm1JamH3Dkbcp+wBOlCPSIWrAMOjL2LxpY09trfbDvNZQBDfTetxYDmknaqW93bzHbFjvpaS4GTPQRltQgghlkNJBUIIIZbD4EMIIcRyGHwIIYRYDoMPIYQQy2HwIYQQYjkMPoQQQiyHwYcQQojlMPgQQgixHAYfQgghlsPgQwghxHIYfAghhFgOgw8hhBDLYfAhhBBiOQw+hBBCLIfBhxBCiOUw+BBCCLEcBh9CCCGWw+BDCCHEchh8CCGEWM7/A7q/sEr4ZBFaAAAAAElFTkSuQmCC;" parent="1" vertex="1">
          <mxGeometry x="520" y="443" width="415" height="74" as="geometry" />
        </mxCell>
      </root>
    </mxGraphModel>
  </diagram>
</mxfile>
